<svg width="22" height="16" viewBox="0 0 22 16" fill="none" xmlns="http://www.w3.org/2000/svg">
<path d="M8.5 8.2C9.8 9.5 12.2 9.5 13.5 8.2L21.3 0.4C20.9 0.2 20.5 0 20 0H2C1.5 0 1.1 0.2 0.7 0.5L8.5 8.2Z" fill="white"/>
<path d="M21.9 14.5C21.9 14.3 22 14.1 22 14V2C22 1.7 21.9 1.5 21.9 1.3L15.3 7.9L21.9 14.5Z" fill="white"/>
<path d="M14.5 8.6L14.2 8.9C13.3 9.8 12.2 10.2 11 10.2C9.8 10.2 8.7 9.8 7.8 8.9L7.5 8.6L0.7 15.4C1 15.8 1.5 16 2 16H20C20.5 16 21 15.8 21.4 15.4L14.5 8.6Z" fill="white"/>
<path d="M0.1 1.3C0.1 1.5 0 1.7 0 2V14C0 14.2 0 14.4 0.1 14.5L6.8 7.8L0.1 1.3Z" fill="white"/>
</svg>
