<svg width="24" height="25" viewBox="0 0 24 25" fill="none" xmlns="http://www.w3.org/2000/svg">
<path d="M12 24.7882C18.6281 24.7882 24 19.4163 24 12.7882C24 6.16008 18.6281 0.788208 12 0.788208C5.37188 0.788208 0 6.16008 0 12.7882C0 19.4163 5.37188 24.7882 12 24.7882ZM5.48906 12.5304L17.0625 8.0679C17.6016 7.87571 18.0703 8.19915 17.8922 9.01008L15.9234 18.2913C15.7781 18.9476 15.3844 19.1116 14.8406 18.7976L11.8406 16.5851L10.3922 17.9773C10.2328 18.1366 10.0969 18.2726 9.7875 18.2726L9.99844 15.221L15.5625 10.2007C15.8062 9.98977 15.5063 9.8679 15.1875 10.0788L8.31562 14.4054L5.35312 13.482C4.71094 13.2757 4.69688 12.8398 5.48906 12.5304Z" fill="white"/>
</svg>
