<svg width="24" height="25" viewBox="0 0 24 25" fill="none" xmlns="http://www.w3.org/2000/svg">
<path fill-rule="evenodd" clip-rule="evenodd" d="M20.3037 0.788208H3.69631C1.65437 0.788208 0 2.44218 0 4.48363V21.087C0 23.1284 1.65437 24.7882 3.69631 24.7882H20.3037C22.3456 24.7882 24 23.1342 24 21.0928V4.48363C24.0058 2.44218 22.3456 0.788208 20.3037 0.788208ZM19.7079 17.6807H17.6891C17.0296 17.6807 16.9487 17.2007 15.7397 16.0441C14.7216 15.0378 14.282 14.9569 14.039 14.9569C13.8192 14.9569 13.6688 15.1188 13.6688 15.5063V17.0446C13.6688 17.4957 13.4085 17.675 12.3384 17.675C10.5799 17.675 8.63051 16.5877 7.14389 14.5868C4.9342 11.6084 4.36731 9.38194 4.36731 8.90194C4.36731 8.6417 4.5582 8.46242 4.81851 8.46242H6.61749C7.08604 8.46242 7.26536 8.60122 7.42733 9.09279C8.24873 11.5101 9.72378 13.6383 10.3369 13.6383C10.5683 13.6383 10.5972 13.4475 10.5972 12.9501V10.5039C10.5972 9.31254 9.92624 9.21423 9.92624 8.77471C9.92624 8.60122 10.0651 8.47399 10.2849 8.47399H13.1714C13.5531 8.47399 13.611 8.61279 13.611 9.07544V12.4123C13.611 12.794 13.6862 12.9328 13.8597 12.9328C14.068 12.9328 14.2646 12.8056 14.6406 12.3834C15.8265 11.0764 16.7983 9.00604 16.7983 9.00604C16.9197 8.7458 17.0701 8.56652 17.4866 8.56652C18.0882 8.56652 19.2856 8.56652 19.2856 8.56652C19.6442 8.56652 19.7946 8.75736 19.7252 9.10435C19.517 10.0644 17.4461 12.9906 17.4461 12.9906C17.2552 13.2913 17.1742 13.4591 17.4461 13.7482C17.637 13.9969 18.2444 14.5289 18.6146 15.0263C19.5228 15.9863 20.1128 16.7959 20.1128 17.2528C20.1012 17.5882 19.9103 17.6807 19.7079 17.6807Z" fill="white"/>
</svg>
